<svg xmlns="http://www.w3.org/2000/svg" viewBox="0 0 512 512">
  <defs>
    <linearGradient id="bg" x1="0%" y1="0%" x2="100%" y2="100%">
      <stop offset="0%" style="stop-color:#3b82f6"/>
      <stop offset="100%" style="stop-color:#6366f1"/>
    </linearGradient>
  </defs>
  <!-- Background rounded rect -->
  <rect width="512" height="512" rx="96" fill="url(#bg)"/>
  <!-- Main tall building -->
  <rect x="68" y="185" width="148" height="267" rx="8" fill="white"/>
  <!-- Roof / gable of main building -->
  <polygon points="48,185 236,185 142,98" fill="rgba(255,255,255,0.92)"/>
  <!-- Windows main building — row 1 -->
  <rect x="92"  y="215" width="38" height="32" rx="4" fill="#3b82f6"/>
  <rect x="148" y="215" width="38" height="32" rx="4" fill="#3b82f6"/>
  <!-- Windows main building — row 2 -->
  <rect x="92"  y="272" width="38" height="32" rx="4" fill="#3b82f6"/>
  <rect x="148" y="272" width="38" height="32" rx="4" fill="#3b82f6"/>
  <!-- Windows main building — row 3 -->
  <rect x="92"  y="329" width="38" height="32" rx="4" fill="#3b82f6"/>
  <rect x="148" y="329" width="38" height="32" rx="4" fill="#3b82f6"/>
  <!-- Door main building -->
  <rect x="112" y="398" width="44" height="54" rx="5" fill="#2563eb"/>
  <!-- Medium building (right) -->
  <rect x="236" y="258" width="116" height="194" rx="8" fill="rgba(255,255,255,0.88)"/>
  <!-- Windows medium building — row 1 -->
  <rect x="256" y="284" width="32" height="26" rx="3" fill="#6366f1"/>
  <rect x="304" y="284" width="32" height="26" rx="3" fill="#6366f1"/>
  <!-- Windows medium building — row 2 -->
  <rect x="256" y="330" width="32" height="26" rx="3" fill="#6366f1"/>
  <rect x="304" y="330" width="32" height="26" rx="3" fill="#6366f1"/>
  <!-- Small building (far right) -->
  <rect x="372" y="305" width="80" height="147" rx="8" fill="rgba(255,255,255,0.74)"/>
  <!-- Windows small building -->
  <rect x="388" y="328" width="24" height="22" rx="3" fill="#818cf8"/>
  <rect x="424" y="328" width="24" height="22" rx="3" fill="#818cf8"/>
  <rect x="388" y="372" width="24" height="22" rx="3" fill="#818cf8"/>
  <rect x="424" y="372" width="24" height="22" rx="3" fill="#818cf8"/>
</svg>
